<mxfile host="app.diagrams.net" modified="2023-03-27T20:30:19.443Z" agent="Mozilla/5.0 (Windows NT 10.0; Win64; x64) AppleWebKit/537.36 (KHTML, like Gecko) Chrome/111.0.0.0 Safari/537.36" etag="BuvLFVyY_0fiqRDWJ1PN" version="21.1.1" type="device">
  <diagram name="Страница 1" id="AyavdYUf38W_OzHNTMit">
    <mxGraphModel dx="794" dy="438" grid="1" gridSize="10" guides="1" tooltips="1" connect="1" arrows="1" fold="1" page="1" pageScale="1" pageWidth="827" pageHeight="1169" math="0" shadow="0">
      <root>
        <mxCell id="0" />
        <mxCell id="1" parent="0" />
        <mxCell id="uhsbSpLp1sKEng9bCTz--3" style="edgeStyle=orthogonalEdgeStyle;rounded=0;orthogonalLoop=1;jettySize=auto;html=1;entryX=0.5;entryY=0;entryDx=0;entryDy=0;" edge="1" parent="1" source="uhsbSpLp1sKEng9bCTz--1" target="uhsbSpLp1sKEng9bCTz--2">
          <mxGeometry relative="1" as="geometry" />
        </mxCell>
        <mxCell id="uhsbSpLp1sKEng9bCTz--1" value="START" style="ellipse;whiteSpace=wrap;html=1;" vertex="1" parent="1">
          <mxGeometry x="270" y="20" width="120" height="80" as="geometry" />
        </mxCell>
        <mxCell id="uhsbSpLp1sKEng9bCTz--5" style="edgeStyle=orthogonalEdgeStyle;rounded=0;orthogonalLoop=1;jettySize=auto;html=1;entryX=0.5;entryY=0;entryDx=0;entryDy=0;" edge="1" parent="1" source="uhsbSpLp1sKEng9bCTz--2" target="uhsbSpLp1sKEng9bCTz--4">
          <mxGeometry relative="1" as="geometry" />
        </mxCell>
        <mxCell id="uhsbSpLp1sKEng9bCTz--2" value="string[]array1=new string [размер]{значения}&lt;br&gt;string[] array2= new string [array1.length]" style="rounded=0;whiteSpace=wrap;html=1;" vertex="1" parent="1">
          <mxGeometry x="190" y="120" width="280" height="40" as="geometry" />
        </mxCell>
        <mxCell id="uhsbSpLp1sKEng9bCTz--6" style="edgeStyle=orthogonalEdgeStyle;rounded=0;orthogonalLoop=1;jettySize=auto;html=1;exitX=1;exitY=0.5;exitDx=0;exitDy=0;" edge="1" parent="1" source="uhsbSpLp1sKEng9bCTz--4">
          <mxGeometry relative="1" as="geometry">
            <mxPoint x="380" y="230" as="targetPoint" />
          </mxGeometry>
        </mxCell>
        <mxCell id="uhsbSpLp1sKEng9bCTz--7" value="нет" style="edgeStyle=orthogonalEdgeStyle;rounded=0;orthogonalLoop=1;jettySize=auto;html=1;exitX=1;exitY=0.5;exitDx=0;exitDy=0;" edge="1" parent="1" source="uhsbSpLp1sKEng9bCTz--4">
          <mxGeometry x="-0.2" y="10" relative="1" as="geometry">
            <mxPoint x="430" y="230" as="targetPoint" />
            <mxPoint as="offset" />
          </mxGeometry>
        </mxCell>
        <mxCell id="uhsbSpLp1sKEng9bCTz--14" value="Да" style="edgeStyle=orthogonalEdgeStyle;rounded=0;orthogonalLoop=1;jettySize=auto;html=1;entryX=0.5;entryY=0;entryDx=0;entryDy=0;" edge="1" parent="1" source="uhsbSpLp1sKEng9bCTz--4" target="uhsbSpLp1sKEng9bCTz--13">
          <mxGeometry x="0.6667" y="20" relative="1" as="geometry">
            <mxPoint as="offset" />
          </mxGeometry>
        </mxCell>
        <mxCell id="uhsbSpLp1sKEng9bCTz--4" value="index array 1 &amp;lt; size" style="rhombus;whiteSpace=wrap;html=1;" vertex="1" parent="1">
          <mxGeometry x="280" y="190" width="100" height="80" as="geometry" />
        </mxCell>
        <mxCell id="uhsbSpLp1sKEng9bCTz--12" style="edgeStyle=orthogonalEdgeStyle;rounded=0;orthogonalLoop=1;jettySize=auto;html=1;entryX=0;entryY=0.5;entryDx=0;entryDy=0;" edge="1" parent="1" source="uhsbSpLp1sKEng9bCTz--8" target="uhsbSpLp1sKEng9bCTz--10">
          <mxGeometry relative="1" as="geometry" />
        </mxCell>
        <mxCell id="uhsbSpLp1sKEng9bCTz--8" value="Print array2" style="shape=document;whiteSpace=wrap;html=1;boundedLbl=1;" vertex="1" parent="1">
          <mxGeometry x="430" y="190" width="120" height="80" as="geometry" />
        </mxCell>
        <mxCell id="uhsbSpLp1sKEng9bCTz--10" value="FINISH" style="ellipse;whiteSpace=wrap;html=1;" vertex="1" parent="1">
          <mxGeometry x="580" y="190" width="120" height="80" as="geometry" />
        </mxCell>
        <mxCell id="uhsbSpLp1sKEng9bCTz--16" value="Нет" style="edgeStyle=orthogonalEdgeStyle;rounded=0;orthogonalLoop=1;jettySize=auto;html=1;exitX=0;exitY=0.5;exitDx=0;exitDy=0;entryX=1;entryY=0.5;entryDx=0;entryDy=0;" edge="1" parent="1" source="uhsbSpLp1sKEng9bCTz--13" target="uhsbSpLp1sKEng9bCTz--15">
          <mxGeometry y="-20" relative="1" as="geometry">
            <Array as="points">
              <mxPoint x="280" y="330" />
              <mxPoint x="280" y="330" />
            </Array>
            <mxPoint as="offset" />
          </mxGeometry>
        </mxCell>
        <mxCell id="uhsbSpLp1sKEng9bCTz--19" value="Да" style="edgeStyle=orthogonalEdgeStyle;rounded=0;orthogonalLoop=1;jettySize=auto;html=1;entryX=0;entryY=0.5;entryDx=0;entryDy=0;" edge="1" parent="1" source="uhsbSpLp1sKEng9bCTz--13" target="uhsbSpLp1sKEng9bCTz--18">
          <mxGeometry x="0.6667" y="20" relative="1" as="geometry">
            <mxPoint as="offset" />
          </mxGeometry>
        </mxCell>
        <mxCell id="uhsbSpLp1sKEng9bCTz--13" value="array1[i]&amp;lt;=3" style="rhombus;whiteSpace=wrap;html=1;" vertex="1" parent="1">
          <mxGeometry x="290" y="290" width="80" height="80" as="geometry" />
        </mxCell>
        <mxCell id="uhsbSpLp1sKEng9bCTz--17" style="edgeStyle=orthogonalEdgeStyle;rounded=0;orthogonalLoop=1;jettySize=auto;html=1;exitX=0.5;exitY=0;exitDx=0;exitDy=0;entryX=0;entryY=0.5;entryDx=0;entryDy=0;" edge="1" parent="1" source="uhsbSpLp1sKEng9bCTz--15" target="uhsbSpLp1sKEng9bCTz--4">
          <mxGeometry relative="1" as="geometry">
            <mxPoint x="210" y="210" as="targetPoint" />
          </mxGeometry>
        </mxCell>
        <mxCell id="uhsbSpLp1sKEng9bCTz--15" value="i++" style="rounded=0;whiteSpace=wrap;html=1;" vertex="1" parent="1">
          <mxGeometry x="150" y="300" width="120" height="60" as="geometry" />
        </mxCell>
        <mxCell id="uhsbSpLp1sKEng9bCTz--20" style="edgeStyle=orthogonalEdgeStyle;rounded=0;orthogonalLoop=1;jettySize=auto;html=1;exitX=1;exitY=0.5;exitDx=0;exitDy=0;" edge="1" parent="1" source="uhsbSpLp1sKEng9bCTz--18">
          <mxGeometry relative="1" as="geometry">
            <mxPoint x="210" y="230" as="targetPoint" />
            <Array as="points">
              <mxPoint x="530" y="330" />
              <mxPoint x="530" y="380" />
              <mxPoint x="90" y="380" />
            </Array>
          </mxGeometry>
        </mxCell>
        <mxCell id="uhsbSpLp1sKEng9bCTz--18" value="array1[i]=array2[count]&lt;br&gt;i++&lt;br&gt;caunt++" style="rounded=0;whiteSpace=wrap;html=1;" vertex="1" parent="1">
          <mxGeometry x="390" y="300" width="120" height="60" as="geometry" />
        </mxCell>
      </root>
    </mxGraphModel>
  </diagram>
</mxfile>
